<svg id="Layer_1" data-name="Layer 1" xmlns="http://www.w3.org/2000/svg" viewBox="0 0 491.5 173.04"><defs><style>.cls-1{fill:#ffbe98;}</style></defs><path class="cls-1" d="M103.93,46.51v40.7H74.52v-3c-6.17,3.6-14.07,5.34-23.84,5.34-29.76,0-43.83-12.32-43.83-38.6v-9.3C6.85,15.7,22.78,3.49,56.5,3.49c31.85,0,47.08,12.68,47.43,39.54H62.08c-.58-1.63-2-2.33-4.42-2.33-3.37,0-4.89,1.86-4.89,5.81s1.52,5.82,4.89,5.82V46.51Z" transform="translate(-6.85 -3.49)"/><path class="cls-1" d="M191.38,33.72H152.77v3.49h34V55.82h-34V59.3h38.61V87.21H110.92V5.82h80.46Z" transform="translate(-6.85 -3.49)"/><path class="cls-1" d="M284.4,33.72H267V87.21H215.8V33.72H198.36V5.82h86Z" transform="translate(-6.85 -3.49)"/><path class="cls-1" d="M398.35,33.72H386.73V59.3h11.62V87.21H328.59V59.3h11.63V33.72H328.59V5.82h69.76Z" transform="translate(-6.85 -3.49)"/><path class="cls-1" d="M456.49,29.07V5.82h41.86V87.21H456.49L447.19,64V87.21H405.33V5.82h41.86Z" transform="translate(-6.85 -3.49)"/><path class="cls-1" d="M92.89,120.72H75.45v53.49H24.29V120.72H6.85V92.82h86Z" transform="translate(-6.85 -3.49)"/><path class="cls-1" d="M99.87,138.17v-9.31c.23-26,15.93-38.37,48.83-38.37s48.61,12.33,48.84,38.37v9.31c0,26-15.58,38.36-48.84,38.36S99.87,164.21,99.87,138.17Zm52.9-5.82c0-2.79-1.28-4.07-4.07-4.07s-4.07,1.28-4.07,4.07,1.28,4.07,4.07,4.07S152.77,135.14,152.77,132.35Z" transform="translate(-6.85 -3.49)"/><path class="cls-1" d="M297.54,139.33c0,23.37-17.33,37.2-46.51,37.2s-46.51-13.83-46.51-37.2V92.82h43.6v47.67c0,2.33.93,3.49,2.91,3.49s2.91-1.16,2.91-3.49V92.82h43.6Z" transform="translate(-6.85 -3.49)"/><path class="cls-1" d="M304.52,137.93v-9.3c0-25.93,15.93-38.14,49.65-38.14,31.86,0,47.09,12.68,47.44,39.54H358.35c-.46-1.63-1.86-2.33-4.18-2.33-2.68,0-4,1.28-4,4.07s1.28,4.07,4,4.07c2.32,0,3.72-.7,4.18-2.33h43.26c0,29.31-15.24,43-47.44,43C320.45,176.53,304.52,164.21,304.52,137.93Z" transform="translate(-6.85 -3.49)"/><path class="cls-1" d="M456.26,92.82h41.86v81.39H456.26V149.79h-5.81v24.42H408.59V92.82h41.86v22.09h5.81Z" transform="translate(-6.85 -3.49)"/></svg>