<svg id="Layer_1" data-name="Layer 1" xmlns="http://www.w3.org/2000/svg" viewBox="0 0 884.29 358.82"><defs><style>.cls-1{fill:#ffbe98;}</style></defs><path class="cls-1" d="M16.4,125.28h85.29c0,5.29,1.92,7.93,6.24,7.93,3.85,0,5.77-1.92,5.77-6.25,0-5.28-3.13-7.93-10.09-8.17l-21.14-1C37.54,115.91,16.4,102.7,16.4,76.51V66.9C16.4,28.22,45.71,10,108.17,10,169.91,10,199,29.91,199,72.43H116.1c0-5.29-1.92-7.93-6.25-7.93-3.84,0-5.76,1.92-5.76,6.25,0,5.28,3.36,7.92,10.81,8.16l21.62,1c44.21,1.92,64.87,14.65,64.87,39.4v9.61c0,40.11-28.59,58.86-89.37,58.86C46.91,187.75,16.4,167.8,16.4,125.28Z" transform="translate(-16.4 -9.97)"/><path class="cls-1" d="M215.79,108.46V89.25C216.27,35.43,248.7,10,316.69,10c68.23,0,100.42,25.46,100.9,79.28v19.21c0,53.82-32.19,79.29-100.9,79.29S215.79,162.28,215.79,108.46Zm109.31-12c0-5.76-2.64-8.41-8.41-8.41s-8.41,2.65-8.41,8.41,2.64,8.41,8.41,8.41S325.1,102.22,325.1,96.45Z" transform="translate(-16.4 -9.97)"/><path class="cls-1" d="M16.4,200.61h88.89l9.61,48,9.61-48H187l9.61,48,9.61-48h88.89l-38.2,168.17H165.59l-9.61-48-9.61,48H55.08Z" transform="translate(-16.4 -9.97)"/><path class="cls-1" d="M408,200.61h86.49V368.78H408V318.33H396v50.45H309.48V200.61H396v45.65h12Z" transform="translate(-16.4 -9.97)"/><path class="cls-1" d="M629,368.78l-2.16-13.21h-24.5l-2.17,13.21H508.87l38.68-168.17H682.33l38.2,168.17Zm-20.42-51.65h12l-4.8-30h-2.4Z" transform="translate(-16.4 -9.97)"/><path class="cls-1" d="M900.69,258.27h-36V368.78H759V258.27h-36V200.61H900.69Z" transform="translate(-16.4 -9.97)"/></svg>