<svg id="Layer_1" data-name="Layer 1" xmlns="http://www.w3.org/2000/svg" viewBox="0 0 1451.73 442.04"><defs><style>.cls-1{fill:#ffbe98;}</style></defs><path class="cls-1" d="M248,60.91c0,14.77-10.46,24.3-28,24.3H155V3.82h63.26c18,0,28.6,9.18,28.6,24.53a19.53,19.53,0,0,1-7.09,15.7C245.11,47.89,248,53.58,248,60.91ZM199.18,34.63c2.91,0,4.65-1.28,4.65-3.49s-1.74-3.49-4.65-3.49h-2.33v7Zm0,26.74c2.91,0,4.65-1.27,4.65-3.48s-1.74-3.49-4.65-3.49h-2.33v7Z" transform="translate(-6.86 -1.49)"/><path class="cls-1" d="M335.45,31.72h-38.6v3.49H330.8V53.82H296.85V57.3h38.6V85.21H255V3.82h80.46Z" transform="translate(-6.86 -1.49)"/><path class="cls-1" d="M455.45,31.72H421.5v3.49h27V58.47h-27V85.21H379.65V3.82h75.8Z" transform="translate(-6.86 -1.49)"/><path class="cls-1" d="M511.27,85.21l-1-6.39H498.36l-1,6.39H453.13L471.85,3.82h65.23l18.49,81.39Zm-9.88-25h5.81l-2.32-14.53h-1.17Z" transform="translate(-6.86 -1.49)"/><path class="cls-1" d="M627.66,31.72H616V57.3h11.62V85.21H557.9V57.3h11.63V31.72H557.9V3.82h69.76Z" transform="translate(-6.86 -1.49)"/><path class="cls-1" d="M720.68,31.72H703.24V85.21H652.08V31.72H634.64V3.82h86Z" transform="translate(-6.86 -1.49)"/><path class="cls-1" d="M775.34,3.82H817.2V85.21H775.34V60.79h-5.81V85.21H727.67V3.82h41.86V25.91h5.81Z" transform="translate(-6.86 -1.49)"/><path class="cls-1" d="M900,31.72H866v3.49h27V58.47H866V85.21H824.18V3.82H900Z" transform="translate(-6.86 -1.49)"/><path class="cls-1" d="M1000,50.33c0,23.37-17.33,37.2-46.51,37.2S907,73.7,907,50.33V3.82h43.6V51.49c0,2.33.93,3.49,2.91,3.49s2.9-1.16,2.9-3.49V3.82H1000Z" transform="translate(-6.86 -1.49)"/><path class="cls-1" d="M1048.83,57.3h31.39V85.21H1007V3.82h41.86Z" transform="translate(-6.86 -1.49)"/><path class="cls-1" d="M1210.45,31.72H1193V85.21h-51.16V31.72h-17.44V3.82h86Z" transform="translate(-6.86 -1.49)"/><path class="cls-1" d="M1217.43,49.17V39.86c.23-26,15.93-38.37,48.83-38.37s48.61,12.33,48.84,38.37v9.31c0,26-15.58,38.36-48.84,38.36S1217.43,75.21,1217.43,49.17Zm52.9-5.82c0-2.79-1.27-4.07-4.07-4.07s-4.06,1.28-4.06,4.07,1.27,4.07,4.06,4.07S1270.33,46.14,1270.33,43.35Z" transform="translate(-6.86 -1.49)"/><path class="cls-1" d="M201.73,92.82l-27.79,55.69h-.11v25.7H132V148.28L104.06,92.82h43l5.82,14,5.81-14Z" transform="translate(-6.86 -1.49)"/><path class="cls-1" d="M197.09,138.17v-9.31c.23-26,15.93-38.37,48.83-38.37s48.6,12.33,48.84,38.37v9.31c0,26-15.59,38.36-48.84,38.36S197.09,164.21,197.09,138.17Zm52.9-5.82c0-2.79-1.28-4.07-4.07-4.07s-4.07,1.28-4.07,4.07,1.28,4.07,4.07,4.07S250,135.14,250,132.35Z" transform="translate(-6.86 -1.49)"/><path class="cls-1" d="M394.76,139.33c0,23.37-17.33,37.2-46.51,37.2s-46.51-13.83-46.51-37.2V92.82h43.6v47.67c0,2.33.93,3.49,2.91,3.49s2.9-1.16,2.9-3.49V92.82h43.61Z" transform="translate(-6.86 -1.49)"/><path class="cls-1" d="M492.43,161.3v12.91h-43V162.82c0-4.89-1.86-7.21-5.81-7.21v18.6H401.74V92.82h58.13c22.09,0,32.56,9,32.56,27.9,0,10.47-3.26,17.91-9.77,22.44C489.29,146.65,492.43,152.7,492.43,161.3Zm-46.51-33c3.14,0,4.65-1.28,4.65-4.07s-1.51-4.07-4.65-4.07H443.6v8.14Z" transform="translate(-6.86 -1.49)"/><path class="cls-1" d="M536.62,138.17v-9.31c.23-26,15.93-38.37,48.84-38.37s48.6,12.33,48.83,38.37v9.31c0,26-15.58,38.36-48.83,38.36S536.62,164.21,536.62,138.17Zm52.91-5.82c0-2.79-1.28-4.07-4.07-4.07s-4.07,1.28-4.07,4.07,1.27,4.07,4.07,4.07S589.53,135.14,589.53,132.35Z" transform="translate(-6.86 -1.49)"/><path class="cls-1" d="M633.13,92.82h43l4.65,23.25,4.66-23.25h30.23l4.65,23.25L725,92.82h43l-18.49,81.39H705.34L700.69,151,696,174.21H651.85Z" transform="translate(-6.86 -1.49)"/><path class="cls-1" d="M821.5,116.07V92.82h41.86v81.39H821.5L812.2,151v23.26H770.34V92.82H812.2Z" transform="translate(-6.86 -1.49)"/><path class="cls-1" d="M993.59,120.72H976.15v53.49H925V120.72H907.55V92.82h86Z" transform="translate(-6.86 -1.49)"/><path class="cls-1" d="M1048.24,174.21l-1-6.39h-11.86l-1,6.39H990.11l18.72-81.39h65.23l18.48,81.39Zm-9.88-25h5.82l-2.33-14.53h-1.16Z" transform="translate(-6.86 -1.49)"/><path class="cls-1" d="M1091.39,146.3h41.27c0,2.56.93,3.84,3,3.84,1.86,0,2.79-.93,2.79-3,0-2.56-1.51-3.84-4.89-4l-10.23-.46c-21.74-.93-32-7.33-32-20v-4.65c0-18.72,14.18-27.56,44.41-27.56,29.89,0,44,9.65,44,30.23h-40.11c0-2.55-.93-3.83-3-3.83-1.86,0-2.79.93-2.79,3,0,2.56,1.62,3.84,5.23,4l10.46.47c21.4.93,31.4,7.09,31.4,19.07v4.65c0,19.42-13.84,28.48-43.26,28.48C1106.15,176.53,1091.39,166.88,1091.39,146.3Z" transform="translate(-6.86 -1.49)"/><path class="cls-1" d="M1273.94,120.72H1256.5v53.49h-51.16V120.72H1187.9V92.82h86Z" transform="translate(-6.86 -1.49)"/><path class="cls-1" d="M1361.38,120.72h-38.6v3.49h34v18.61h-34v3.48h38.6v27.91h-80.46V92.82h80.46Z" transform="translate(-6.86 -1.49)"/><path class="cls-1" d="M137.66,238.91c0,14.77-10.46,24.3-28,24.3h-65V181.82H107.9c18,0,28.6,9.18,28.6,24.53a19.53,19.53,0,0,1-7.09,15.7C134.76,225.89,137.66,231.58,137.66,238.91ZM88.83,212.63c2.91,0,4.65-1.28,4.65-3.49s-1.74-3.49-4.65-3.49H86.5v7Zm0,26.74c2.91,0,4.65-1.27,4.65-3.48s-1.74-3.49-4.65-3.49H86.5v7Z" transform="translate(-6.86 -1.49)"/><path class="cls-1" d="M225.11,209.72H186.5v3.49h33.95v18.61H186.5v3.48h38.61v27.91H144.65V181.82h80.46Z" transform="translate(-6.86 -1.49)"/><path class="cls-1" d="M232.09,226.93v-9.3c0-25.93,15.93-38.14,49.65-38.14,31.85,0,47.09,12.68,47.43,39.54H285.92c-.46-1.63-1.86-2.33-4.18-2.33-2.68,0-4,1.28-4,4.07s1.28,4.07,4,4.07c2.32,0,3.72-.7,4.18-2.33h43.25c0,29.31-15.23,43-47.43,43C248,265.53,232.09,253.21,232.09,226.93Z" transform="translate(-6.86 -1.49)"/><path class="cls-1" d="M389.64,263.21l-1-6.39H376.74l-1.05,6.39H331.51l18.72-81.39h65.22l18.49,81.39Zm-9.88-25h5.81l-2.32-14.53h-1.17Z" transform="translate(-6.86 -1.49)"/><path class="cls-1" d="M529.29,228.33c0,23.37-17.32,37.2-46.51,37.2s-46.51-13.83-46.51-37.2V181.82h43.61v47.67c0,2.33.93,3.49,2.9,3.49s2.91-1.16,2.91-3.49V181.82h43.6Z" transform="translate(-6.86 -1.49)"/><path class="cls-1" d="M536.27,235.3h41.28c0,2.56.93,3.84,3,3.84,1.86,0,2.79-.93,2.79-3,0-2.56-1.51-3.84-4.88-4l-10.23-.46c-21.75-.93-32-7.33-32-20v-4.65c0-18.72,14.19-27.56,44.42-27.56,29.88,0,43.95,9.65,43.95,30.23H584.53c0-2.55-.93-3.83-3-3.83-1.86,0-2.79.93-2.79,3,0,2.56,1.63,3.84,5.23,4l10.47.47c21.39.93,31.39,7.09,31.39,19.07v4.65c0,19.42-13.83,28.48-43.25,28.48C551,265.53,536.27,255.88,536.27,235.3Z" transform="translate(-6.86 -1.49)"/><path class="cls-1" d="M713.24,209.72h-38.6v3.49h34v18.61h-34v3.48h38.6v27.91H632.78V181.82h80.46Z" transform="translate(-6.86 -1.49)"/><path class="cls-1" d="M808.59,205.07V181.82h41.86v81.39H808.59L799.29,240v23.26H757.43V181.82h41.86Z" transform="translate(-6.86 -1.49)"/><path class="cls-1" d="M857.43,227.17v-9.31c.24-26,15.93-38.37,48.84-38.37s48.6,12.33,48.83,38.37v9.31c0,26-15.58,38.36-48.83,38.36S857.43,253.21,857.43,227.17Zm52.91-5.82c0-2.79-1.28-4.07-4.07-4.07s-4.07,1.28-4.07,4.07,1.28,4.07,4.07,4.07S910.34,224.14,910.34,221.35Z" transform="translate(-6.86 -1.49)"/><path class="cls-1" d="M1048.13,209.72h-17.44v53.49H979.53V209.72H962.08v-27.9h86.05Z" transform="translate(-6.86 -1.49)"/><path class="cls-1" d="M1102.78,181.82h41.86v81.39h-41.86V238.79H1097v24.42h-41.86V181.82H1097v22.09h5.81Z" transform="translate(-6.86 -1.49)"/><path class="cls-1" d="M1221.38,209.72h-11.63V235.3h11.63v27.91h-69.76V235.3h11.63V209.72h-11.63v-27.9h69.76Z" transform="translate(-6.86 -1.49)"/><path class="cls-1" d="M1279.52,205.07V181.82h41.86v81.39h-41.86l-9.3-23.26v23.26h-41.86V181.82h41.86Z" transform="translate(-6.86 -1.49)"/><path class="cls-1" d="M1425.45,222.51v40.7H1396v-3c-6.16,3.6-14.07,5.34-23.83,5.34-29.77,0-43.84-12.32-43.84-38.6v-9.3c0-25.93,15.93-38.14,49.65-38.14,31.86,0,47.09,12.68,47.44,39.54h-41.86c-.58-1.63-2-2.33-4.42-2.33-3.37,0-4.88,1.86-4.88,5.81s1.51,5.82,4.88,5.82v-5.82Z" transform="translate(-6.86 -1.49)"/><path class="cls-1" d="M104.52,270.82,76.74,326.51h-.12v25.7H34.76V326.28L6.86,270.82h43l5.81,13.95,5.81-13.95Z" transform="translate(-6.86 -1.49)"/><path class="cls-1" d="M99.88,316.17v-9.31c.23-26,15.93-38.37,48.83-38.37s48.61,12.33,48.84,38.37v9.31c0,26-15.58,38.36-48.84,38.36S99.88,342.21,99.88,316.17Zm52.9-5.82c0-2.79-1.28-4.07-4.07-4.07s-4.07,1.28-4.07,4.07,1.28,4.07,4.07,4.07S152.78,313.14,152.78,310.35Z" transform="translate(-6.86 -1.49)"/><path class="cls-1" d="M297.55,317.33c0,23.37-17.33,37.2-46.51,37.2s-46.51-13.83-46.51-37.2V270.82h43.6v47.67c0,2.33.93,3.49,2.91,3.49s2.91-1.16,2.91-3.49V270.82h43.6Z" transform="translate(-6.86 -1.49)"/><path class="cls-1" d="M432.43,339.3v12.91h-43V340.82c0-4.89-1.86-7.21-5.81-7.21v18.6H341.74V270.82h58.14c22.09,0,32.55,8.95,32.55,27.9,0,10.47-3.25,17.91-9.77,22.44C429.29,324.65,432.43,330.7,432.43,339.3Zm-46.51-33c3.14,0,4.65-1.28,4.65-4.07s-1.51-4.07-4.65-4.07H383.6v8.14Z" transform="translate(-6.86 -1.49)"/><path class="cls-1" d="M519.87,298.72h-38.6v3.49h34v18.61h-34v3.48h38.6v27.91H439.41V270.82h80.46Z" transform="translate(-6.86 -1.49)"/><path class="cls-1" d="M580.34,352.21l-1.05-6.39H567.43l-1,6.39H522.2l18.72-81.39h65.23l18.49,81.39Zm-9.88-25h5.81L574,312.68h-1.17Z" transform="translate(-6.86 -1.49)"/><path class="cls-1" d="M668.83,324.3h31.39v27.91H627V270.82h41.86Z" transform="translate(-6.86 -1.49)"/><path class="cls-1" d="M749.06,324.3h31.39v27.91H707.2V270.82h41.86Z" transform="translate(-6.86 -1.49)"/><path class="cls-1" d="M868.82,270.82,841,326.51h-.12v25.7H799.06V326.28l-27.9-55.46h43L820,284.77l5.81-13.95Z" transform="translate(-6.86 -1.49)"/><path class="cls-1" d="M950.22,324.3h31.4v27.91H908.36V270.82h41.86Z" transform="translate(-6.86 -1.49)"/><path class="cls-1" d="M1058.36,298.72h-11.63V324.3h11.63v27.91H988.6V324.3h11.62V298.72H988.6v-27.9h69.76Z" transform="translate(-6.86 -1.49)"/><path class="cls-1" d="M1164.17,270.82l-19.88,37.09,19.88,44.3h-48.83l-8.14-23v23h-41.86V270.82h41.86V289l9.3-18.14Z" transform="translate(-6.86 -1.49)"/><path class="cls-1" d="M1248.13,298.72h-38.61v3.49h34v18.61h-34v3.48h38.61v27.91h-80.46V270.82h80.46Z" transform="translate(-6.86 -1.49)"/><path class="cls-1" d="M1362.08,298.72h-11.63V324.3h11.63v27.91h-69.76V324.3h11.62V298.72h-11.62v-27.9h69.76Z" transform="translate(-6.86 -1.49)"/><path class="cls-1" d="M1369.06,324.3h41.28c0,2.56.93,3.84,3,3.84,1.86,0,2.79-.93,2.79-3,0-2.56-1.51-3.84-4.88-4L1401,320.7c-21.75-.93-32-7.33-32-20v-4.65c0-18.72,14.19-27.56,44.42-27.56,29.88,0,44,9.65,44,30.23h-40.12c0-2.55-.93-3.83-3-3.83-1.86,0-2.79.93-2.79,3,0,2.56,1.63,3.84,5.23,3.95l10.47.47c21.39.93,31.39,7.09,31.39,19.07v4.65c0,19.42-13.84,28.48-43.25,28.48C1383.83,354.53,1369.06,344.88,1369.06,324.3Z" transform="translate(-6.86 -1.49)"/><path class="cls-1" d="M100.77,387.72H62.17v3.49h34v18.61H62.17v3.48h38.6v27.91H20.31V359.82h80.46Z" transform="translate(-6.86 -1.49)"/><path class="cls-1" d="M146.12,359.82l4.65,23.25,4.65-23.25h43L180,441.21H121.82L103.1,359.82Z" transform="translate(-6.86 -1.49)"/><path class="cls-1" d="M281.24,387.72H242.63v3.49h33.95v18.61H242.63v3.48h38.61v27.91H200.78V359.82h80.46Z" transform="translate(-6.86 -1.49)"/><path class="cls-1" d="M378.91,428.3v12.91h-43V429.82c0-4.89-1.86-7.21-5.81-7.21v18.6H288.22V359.82h58.13c22.09,0,32.56,8.95,32.56,27.9,0,10.47-3.26,17.91-9.77,22.44C375.77,413.65,378.91,419.7,378.91,428.3Zm-46.51-33c3.14,0,4.65-1.28,4.65-4.07s-1.51-4.07-4.65-4.07h-2.32v8.14Z" transform="translate(-6.86 -1.49)"/><path class="cls-1" d="M423.1,405.17v-9.31c.23-26,15.93-38.37,48.83-38.37s48.61,12.33,48.84,38.37v9.31c0,26-15.58,38.36-48.84,38.36S423.1,431.21,423.1,405.17Zm52.9-5.82c0-2.79-1.27-4.07-4.07-4.07s-4.06,1.28-4.06,4.07,1.27,4.07,4.06,4.07S476,402.14,476,399.35Z" transform="translate(-6.86 -1.49)"/><path class="cls-1" d="M620.77,406.33c0,23.37-17.33,37.2-46.51,37.2s-46.51-13.83-46.51-37.2V359.82h43.6v47.67c0,2.33.93,3.49,2.91,3.49s2.91-1.16,2.91-3.49V359.82h43.6Z" transform="translate(-6.86 -1.49)"/><path class="cls-1" d="M713.79,387.72H696.35v53.49H645.19V387.72H627.75v-27.9h86Z" transform="translate(-6.86 -1.49)"/><path class="cls-1" d="M758,405.17v-9.31c.24-26,15.93-38.37,48.84-38.37s48.6,12.33,48.83,38.37v9.31c0,26-15.58,38.36-48.83,38.36S758,431.21,758,405.17Zm52.91-5.82c0-2.79-1.28-4.07-4.07-4.07s-4.07,1.28-4.07,4.07,1.28,4.07,4.07,4.07S810.89,402.14,810.89,399.35Z" transform="translate(-6.86 -1.49)"/><path class="cls-1" d="M938.44,387.72h-34v3.49h27v23.26h-27v26.74H862.63V359.82h75.81Z" transform="translate(-6.86 -1.49)"/><path class="cls-1" d="M982.63,413.3h41.28c0,2.56.93,3.84,3,3.84,1.86,0,2.79-.93,2.79-3,0-2.56-1.51-3.84-4.88-4l-10.23-.46c-21.74-.93-32-7.33-32-20v-4.65c0-18.72,14.19-27.56,44.42-27.56,29.88,0,44,9.65,44,30.23h-40.11c0-2.55-.93-3.83-3-3.83-1.86,0-2.79.93-2.79,3,0,2.56,1.63,3.84,5.23,3.95l10.47.47c21.39.93,31.39,7.09,31.39,19.07v4.65c0,19.42-13.83,28.48-43.25,28.48C997.4,443.53,982.63,433.88,982.63,413.3Z" transform="translate(-6.86 -1.49)"/><path class="cls-1" d="M1165.18,387.72h-17.44v53.49h-51.16V387.72h-17.44v-27.9h86Z" transform="translate(-6.86 -1.49)"/><path class="cls-1" d="M1265.18,359.82l-27.78,55.69h-.12v25.7h-41.86V415.28l-27.9-55.46h43l5.81,13.95,5.81-13.95Z" transform="translate(-6.86 -1.49)"/><path class="cls-1" d="M1309.37,413.3h31.4v27.91h-73.25V359.82h41.85Z" transform="translate(-6.86 -1.49)"/><path class="cls-1" d="M1428.21,387.72h-38.6v3.49h34v18.61h-34v3.48h38.6v27.91h-80.46V359.82h80.46Z" transform="translate(-6.86 -1.49)"/><path class="cls-1" d="M1437.7,436.37a5.5,5.5,0,0,1,5.58-5.86c3.26,0,5.49,2.42,5.49,5.86s-2.14,5.86-5.58,5.86C1439.93,442.23,1437.7,439.72,1437.7,436.37Z" transform="translate(-6.86 -1.49)"/></svg>