<?xml version="1.0" encoding="UTF-8"?>
<svg id="Layer_1" xmlns="http://www.w3.org/2000/svg" version="1.1" viewBox="0 0 1080 1080">
  <!-- Generator: Adobe Illustrator 29.1.0, SVG Export Plug-In . SVG Version: 2.1.0 Build 142)  -->
  <defs>
    <style>
      .st0 {
        fill: #ffbe98;
      }
    </style>
  </defs>
  <path class="st0" d="M98.44,475.96h85.29c0,5.29,1.92,7.93,6.25,7.93,3.84,0,5.77-1.92,5.77-6.25,0-5.28-3.12-7.93-10.09-8.17l-21.14-.96c-44.93-1.92-66.07-15.13-66.07-41.32v-9.61c0-38.68,29.31-56.94,91.77-56.94s90.81,19.94,90.81,62.46h-82.88c0-5.28-1.92-7.93-6.25-7.93-3.84,0-5.77,1.92-5.77,6.25,0,5.29,3.36,7.93,10.81,8.17l21.62.96c44.21,1.92,64.87,14.65,64.87,39.4v9.61c0,40.12-28.59,58.86-89.37,58.86-65.11,0-95.62-19.94-95.62-62.46Z"/>
  <path class="st0" d="M297.83,459.15v-19.22c.48-53.82,32.91-79.28,100.9-79.28s100.42,25.46,100.9,79.28v19.22c0,53.81-32.19,79.28-100.9,79.28s-100.9-25.47-100.9-79.28ZM407.14,447.13c0-5.76-2.64-8.41-8.41-8.41s-8.41,2.64-8.41,8.41,2.64,8.41,8.41,8.41,8.41-2.64,8.41-8.41Z"/>
  <path class="st0" d="M98.44,551.29h88.89l9.61,48.05,9.61-48.05h62.46l9.61,48.05,9.61-48.05h88.89l-38.2,168.17h-91.29l-9.61-48.05-9.61,48.05h-91.29l-38.68-168.17Z"/>
  <path class="st0" d="M490.02,551.29h86.49v168.17h-86.49v-50.45h-12.01v50.45h-86.49v-168.17h86.49v45.65h12.01v-45.65Z"/>
  <path class="st0" d="M711.03,719.46l-2.16-13.21h-24.51l-2.16,13.21h-91.29l38.68-168.17h134.78l38.2,168.17h-91.53ZM690.61,667.81h12.01l-4.81-30.03h-2.4l-4.8,30.03Z"/>
  <path class="st0" d="M982.73,608.95h-36.04v110.51h-105.71v-110.51h-36.04v-57.66h177.78v57.66Z"/>
</svg>