<svg id="Layer_1" data-name="Layer 1" xmlns="http://www.w3.org/2000/svg" viewBox="0 0 799.99 86.04"><defs><style>.cls-1{fill:#ffbe98;}</style></defs><path class="cls-1" d="M91.37,35.72H73.93V89.21H22.77V35.72H5.33V7.82h86Z" transform="translate(-5.33 -5.49)"/><path class="cls-1" d="M146,7.82h41.86V89.21H146V64.79h-5.81V89.21H98.35V7.82h41.86V29.91H146Z" transform="translate(-5.33 -5.49)"/><path class="cls-1" d="M264.62,35.72H253V61.3h11.63V89.21H194.86V61.3h11.63V35.72H194.86V7.82h69.76Z" transform="translate(-5.33 -5.49)"/><path class="cls-1" d="M271.6,61.3h41.28c0,2.56.93,3.84,3,3.84,1.86,0,2.79-.93,2.79-3,0-2.56-1.51-3.84-4.88-4l-10.23-.46c-21.75-.93-32-7.33-32-20V33.05c0-18.72,14.19-27.56,44.42-27.56,29.88,0,44,9.65,44,30.23H319.86c0-2.55-.93-3.83-3-3.83-1.86,0-2.79.93-2.79,3,0,2.56,1.63,3.84,5.23,4l10.47.47c21.39.93,31.39,7.09,31.39,19.07v4.65c0,19.42-13.83,28.48-43.25,28.48C286.37,91.53,271.6,81.88,271.6,61.3Z" transform="translate(-5.33 -5.49)"/><path class="cls-1" d="M475.09,35.72H463.46V61.3h11.63V89.21H405.32V61.3H417V35.72H405.32V7.82h69.77Z" transform="translate(-5.33 -5.49)"/><path class="cls-1" d="M482.07,61.3h41.27c0,2.56.93,3.84,3,3.84,1.86,0,2.79-.93,2.79-3,0-2.56-1.51-3.84-4.89-4L514,57.7c-21.74-.93-32-7.33-32-20V33.05c0-18.72,14.18-27.56,44.41-27.56,29.88,0,43.95,9.65,43.95,30.23H530.32c0-2.55-.93-3.83-3-3.83-1.86,0-2.79.93-2.79,3,0,2.56,1.62,3.84,5.23,4l10.46.47c21.4.93,31.4,7.09,31.4,19.07v4.65c0,19.42-13.84,28.48-43.26,28.48C496.83,91.53,482.07,81.88,482.07,61.3Z" transform="translate(-5.33 -5.49)"/><path class="cls-1" d="M708.8,54.33c0,23.37-17.32,37.2-46.5,37.2s-46.51-13.83-46.51-37.2V7.82h43.6V55.49c0,2.33.93,3.49,2.91,3.49s2.9-1.16,2.9-3.49V7.82h43.6Z" transform="translate(-5.33 -5.49)"/><path class="cls-1" d="M715.79,61.3h41.27c0,2.56.93,3.84,3,3.84,1.86,0,2.79-.93,2.79-3,0-2.56-1.51-3.84-4.89-4l-10.23-.46c-21.74-.93-32-7.33-32-20V33.05c0-18.72,14.18-27.56,44.41-27.56,29.88,0,43.95,9.65,43.95,30.23H764c0-2.55-.93-3.83-3-3.83-1.86,0-2.79.93-2.79,3,0,2.56,1.62,3.84,5.23,4l10.46.47c21.4.93,31.4,7.09,31.4,19.07v4.65c0,19.42-13.84,28.48-43.26,28.48C730.55,91.53,715.79,81.88,715.79,61.3Z" transform="translate(-5.33 -5.49)"/></svg>